<svg id="visual" viewBox="0 0 960 540" width="960" height="540" xmlns="http://www.w3.org/2000/svg" xmlns:xlink="http://www.w3.org/1999/xlink" version="1.1"><path d="M0 39L12.3 39C24.7 39 49.3 39 74 39.8C98.7 40.7 123.3 42.3 148 42.3C172.7 42.3 197.3 40.7 221.8 40.7C246.3 40.7 270.7 42.3 295.2 42.3C319.7 42.3 344.3 40.7 369 39.8C393.7 39 418.3 39 443 39C467.7 39 492.3 39 517 39C541.7 39 566.3 39 591 39.8C615.7 40.7 640.3 42.3 664.8 42.3C689.3 42.3 713.7 40.7 738.2 40.7C762.7 40.7 787.3 42.3 812 43.2C836.7 44 861.3 44 886 43.2C910.7 42.3 935.3 40.7 947.7 39.8L960 39L960 0L947.7 0C935.3 0 910.7 0 886 0C861.3 0 836.7 0 812 0C787.3 0 762.7 0 738.2 0C713.7 0 689.3 0 664.8 0C640.3 0 615.7 0 591 0C566.3 0 541.7 0 517 0C492.3 0 467.7 0 443 0C418.3 0 393.7 0 369 0C344.3 0 319.7 0 295.2 0C270.7 0 246.3 0 221.8 0C197.3 0 172.7 0 148 0C123.3 0 98.7 0 74 0C49.3 0 24.7 0 12.3 0L0 0Z" fill="#4168b0"></path><path d="M0 60L12.3 60C24.7 60 49.3 60 74 61C98.7 62 123.3 64 148 64C172.7 64 197.3 62 221.8 62C246.3 62 270.7 64 295.2 64C319.7 64 344.3 62 369 61C393.7 60 418.3 60 443 60C467.7 60 492.3 60 517 60C541.7 60 566.3 60 591 61C615.7 62 640.3 64 664.8 64C689.3 64 713.7 62 738.2 62C762.7 62 787.3 64 812 65C836.7 66 861.3 66 886 65C910.7 64 935.3 62 947.7 61L960 60L960 37L947.7 37.8C935.3 38.7 910.7 40.3 886 41.2C861.3 42 836.7 42 812 41.2C787.3 40.3 762.7 38.7 738.2 38.7C713.7 38.7 689.3 40.3 664.8 40.3C640.3 40.3 615.7 38.7 591 37.8C566.3 37 541.7 37 517 37C492.3 37 467.7 37 443 37C418.3 37 393.7 37 369 37.8C344.3 38.7 319.7 40.3 295.2 40.3C270.7 40.3 246.3 38.7 221.8 38.7C197.3 38.7 172.7 40.3 148 40.3C123.3 40.3 98.7 38.7 74 37.8C49.3 37 24.7 37 12.3 37L0 37Z" fill="#2e57a1"></path><path d="M0 82L12.3 82C24.7 82 49.3 82 74 82.8C98.7 83.7 123.3 85.3 148 85.3C172.7 85.3 197.3 83.7 221.8 83.7C246.3 83.7 270.7 85.3 295.2 85.3C319.7 85.3 344.3 83.7 369 82.8C393.7 82 418.3 82 443 82C467.7 82 492.3 82 517 82C541.7 82 566.3 82 591 82.8C615.7 83.7 640.3 85.3 664.8 85.3C689.3 85.3 713.7 83.7 738.2 83.7C762.7 83.7 787.3 85.3 812 86.2C836.7 87 861.3 87 886 86.2C910.7 85.3 935.3 83.7 947.7 82.8L960 82L960 58L947.7 59C935.3 60 910.7 62 886 63C861.3 64 836.7 64 812 63C787.3 62 762.7 60 738.2 60C713.7 60 689.3 62 664.8 62C640.3 62 615.7 60 591 59C566.3 58 541.7 58 517 58C492.3 58 467.7 58 443 58C418.3 58 393.7 58 369 59C344.3 60 319.7 62 295.2 62C270.7 62 246.3 60 221.8 60C197.3 60 172.7 62 148 62C123.3 62 98.7 60 74 59C49.3 58 24.7 58 12.3 58L0 58Z" fill="#164692"></path><path d="M0 104L12.3 104.8C24.7 105.7 49.3 107.3 74 108.2C98.7 109 123.3 109 148 108.2C172.7 107.3 197.3 105.7 221.8 106.5C246.3 107.3 270.7 110.7 295.2 111.5C319.7 112.3 344.3 110.7 369 109C393.7 107.3 418.3 105.7 443 105.7C467.7 105.7 492.3 107.3 517 107.3C541.7 107.3 566.3 105.7 591 105.7C615.7 105.7 640.3 107.3 664.8 108.2C689.3 109 713.7 109 738.2 109.8C762.7 110.7 787.3 112.3 812 112.3C836.7 112.3 861.3 110.7 886 109.8C910.7 109 935.3 109 947.7 109L960 109L960 80L947.7 80.8C935.3 81.7 910.7 83.3 886 84.2C861.3 85 836.7 85 812 84.2C787.3 83.3 762.7 81.7 738.2 81.7C713.7 81.7 689.3 83.3 664.8 83.3C640.3 83.3 615.7 81.7 591 80.8C566.3 80 541.7 80 517 80C492.3 80 467.7 80 443 80C418.3 80 393.7 80 369 80.8C344.3 81.7 319.7 83.3 295.2 83.3C270.7 83.3 246.3 81.7 221.8 81.7C197.3 81.7 172.7 83.3 148 83.3C123.3 83.3 98.7 81.7 74 80.8C49.3 80 24.7 80 12.3 80L0 80Z" fill="#083d81"></path><path d="M0 131L12.3 131.8C24.7 132.7 49.3 134.3 74 135.2C98.7 136 123.3 136 148 135.2C172.7 134.3 197.3 132.7 221.8 133.5C246.3 134.3 270.7 137.7 295.2 138.5C319.7 139.3 344.3 137.7 369 136C393.7 134.3 418.3 132.7 443 132.7C467.7 132.7 492.3 134.3 517 134.3C541.7 134.3 566.3 132.7 591 132.7C615.7 132.7 640.3 134.3 664.8 135.2C689.3 136 713.7 136 738.2 136.8C762.7 137.7 787.3 139.3 812 139.3C836.7 139.3 861.3 137.7 886 136.8C910.7 136 935.3 136 947.7 136L960 136L960 107L947.7 107C935.3 107 910.7 107 886 107.8C861.3 108.7 836.7 110.3 812 110.3C787.3 110.3 762.7 108.7 738.2 107.8C713.7 107 689.3 107 664.8 106.2C640.3 105.3 615.7 103.7 591 103.7C566.3 103.7 541.7 105.3 517 105.3C492.3 105.3 467.7 103.7 443 103.7C418.3 103.7 393.7 105.3 369 107C344.3 108.7 319.7 110.3 295.2 109.5C270.7 108.7 246.3 105.3 221.8 104.5C197.3 103.7 172.7 105.3 148 106.2C123.3 107 98.7 107 74 106.2C49.3 105.3 24.7 103.7 12.3 102.8L0 102Z" fill="#033670"></path><path d="M0 158L12.3 158.8C24.7 159.7 49.3 161.3 74 163C98.7 164.7 123.3 166.3 148 166.3C172.7 166.3 197.3 164.7 221.8 164.7C246.3 164.7 270.7 166.3 295.2 167.2C319.7 168 344.3 168 369 167.2C393.7 166.3 418.3 164.7 443 163.8C467.7 163 492.3 163 517 162.2C541.7 161.3 566.3 159.7 591 159.7C615.7 159.7 640.3 161.3 664.8 163C689.3 164.7 713.7 166.3 738.2 167.2C762.7 168 787.3 168 812 168C836.7 168 861.3 168 886 167.2C910.7 166.3 935.3 164.7 947.7 163.8L960 163L960 134L947.7 134C935.3 134 910.7 134 886 134.8C861.3 135.7 836.7 137.3 812 137.3C787.3 137.3 762.7 135.7 738.2 134.8C713.7 134 689.3 134 664.8 133.2C640.3 132.3 615.7 130.7 591 130.7C566.3 130.7 541.7 132.3 517 132.3C492.3 132.3 467.7 130.7 443 130.7C418.3 130.7 393.7 132.3 369 134C344.3 135.7 319.7 137.3 295.2 136.5C270.7 135.7 246.3 132.3 221.8 131.5C197.3 130.7 172.7 132.3 148 133.2C123.3 134 98.7 134 74 133.2C49.3 132.3 24.7 130.7 12.3 129.8L0 129Z" fill="#023369"></path><path d="M0 260L12.3 261.8C24.7 263.7 49.3 267.3 74 271C98.7 274.7 123.3 278.3 148 277.5C172.7 276.7 197.3 271.3 221.8 271.3C246.3 271.3 270.7 276.7 295.2 278.3C319.7 280 344.3 278 369 277C393.7 276 418.3 276 443 277C467.7 278 492.3 280 517 279.2C541.7 278.3 566.3 274.7 591 274.7C615.7 274.7 640.3 278.3 664.8 279.2C689.3 280 713.7 278 738.2 276.2C762.7 274.3 787.3 272.7 812 273.7C836.7 274.7 861.3 278.3 886 277.5C910.7 276.7 935.3 271.3 947.7 268.7L960 266L960 161L947.7 161.8C935.3 162.7 910.7 164.3 886 165.2C861.3 166 836.7 166 812 166C787.3 166 762.7 166 738.2 165.2C713.7 164.3 689.3 162.7 664.8 161C640.3 159.3 615.7 157.7 591 157.7C566.3 157.7 541.7 159.3 517 160.2C492.3 161 467.7 161 443 161.8C418.3 162.7 393.7 164.3 369 165.2C344.3 166 319.7 166 295.2 165.2C270.7 164.3 246.3 162.7 221.8 162.7C197.3 162.7 172.7 164.3 148 164.3C123.3 164.3 98.7 162.7 74 161C49.3 159.3 24.7 157.7 12.3 156.8L0 156Z" fill="#023369"></path><path d="M0 309L12.3 309.8C24.7 310.7 49.3 312.3 74 315C98.7 317.7 123.3 321.3 148 320.5C172.7 319.7 197.3 314.3 221.8 314.3C246.3 314.3 270.7 319.7 295.2 322.3C319.7 325 344.3 325 369 325.8C393.7 326.7 418.3 328.3 443 329.2C467.7 330 492.3 330 517 329.2C541.7 328.3 566.3 326.7 591 325.8C615.7 325 640.3 325 664.8 325C689.3 325 713.7 325 738.2 324.2C762.7 323.3 787.3 321.7 812 322.5C836.7 323.3 861.3 326.7 886 325.7C910.7 324.7 935.3 319.3 947.7 316.7L960 314L960 264L947.7 266.7C935.3 269.3 910.7 274.7 886 275.5C861.3 276.3 836.7 272.7 812 271.7C787.3 270.7 762.7 272.3 738.2 274.2C713.7 276 689.3 278 664.8 277.2C640.3 276.3 615.7 272.7 591 272.7C566.3 272.7 541.7 276.3 517 277.2C492.3 278 467.7 276 443 275C418.3 274 393.7 274 369 275C344.3 276 319.7 278 295.2 276.3C270.7 274.7 246.3 269.3 221.8 269.3C197.3 269.3 172.7 274.7 148 275.5C123.3 276.3 98.7 272.7 74 269C49.3 265.3 24.7 261.7 12.3 259.8L0 258Z" fill="#033670"></path><path d="M0 374L12.3 375.7C24.7 377.3 49.3 380.7 74 384.2C98.7 387.7 123.3 391.3 148 389.7C172.7 388 197.3 381 221.8 379.2C246.3 377.3 270.7 380.7 295.2 383.3C319.7 386 344.3 388 369 389C393.7 390 418.3 390 443 390.8C467.7 391.7 492.3 393.3 517 393.3C541.7 393.3 566.3 391.7 591 390.8C615.7 390 640.3 390 664.8 390C689.3 390 713.7 390 738.2 389C762.7 388 787.3 386 812 386C836.7 386 861.3 388 886 387.2C910.7 386.3 935.3 382.7 947.7 380.8L960 379L960 312L947.7 314.7C935.3 317.3 910.7 322.7 886 323.7C861.3 324.7 836.7 321.3 812 320.5C787.3 319.7 762.7 321.3 738.2 322.2C713.7 323 689.3 323 664.8 323C640.3 323 615.7 323 591 323.8C566.3 324.7 541.7 326.3 517 327.2C492.3 328 467.7 328 443 327.2C418.3 326.3 393.7 324.7 369 323.8C344.3 323 319.7 323 295.2 320.3C270.7 317.7 246.3 312.3 221.8 312.3C197.3 312.3 172.7 317.7 148 318.5C123.3 319.3 98.7 315.7 74 313C49.3 310.3 24.7 308.7 12.3 307.8L0 307Z" fill="#083d81"></path><path d="M0 395L12.3 396.8C24.7 398.7 49.3 402.3 74 406C98.7 409.7 123.3 413.3 148 411.5C172.7 409.7 197.3 402.3 221.8 400.5C246.3 398.7 270.7 402.3 295.2 405C319.7 407.7 344.3 409.3 369 410.2C393.7 411 418.3 411 443 412C467.7 413 492.3 415 517 415C541.7 415 566.3 413 591 412C615.7 411 640.3 411 664.8 411C689.3 411 713.7 411 738.2 410.2C762.7 409.3 787.3 407.7 812 407.7C836.7 407.7 861.3 409.3 886 408.5C910.7 407.7 935.3 404.3 947.7 402.7L960 401L960 377L947.7 378.8C935.3 380.7 910.7 384.3 886 385.2C861.3 386 836.7 384 812 384C787.3 384 762.7 386 738.2 387C713.7 388 689.3 388 664.8 388C640.3 388 615.7 388 591 388.8C566.3 389.7 541.7 391.3 517 391.3C492.3 391.3 467.7 389.7 443 388.8C418.3 388 393.7 388 369 387C344.3 386 319.7 384 295.2 381.3C270.7 378.7 246.3 375.3 221.8 377.2C197.3 379 172.7 386 148 387.7C123.3 389.3 98.7 385.7 74 382.2C49.3 378.7 24.7 375.3 12.3 373.7L0 372Z" fill="#164692"></path><path d="M0 503L12.3 503C24.7 503 49.3 503 74 504C98.7 505 123.3 507 148 507C172.7 507 197.3 505 221.8 504C246.3 503 270.7 503 295.2 504C319.7 505 344.3 507 369 508C393.7 509 418.3 509 443 509C467.7 509 492.3 509 517 508C541.7 507 566.3 505 591 504C615.7 503 640.3 503 664.8 504C689.3 505 713.7 507 738.2 507C762.7 507 787.3 505 812 504C836.7 503 861.3 503 886 504C910.7 505 935.3 507 947.7 508L960 509L960 399L947.7 400.7C935.3 402.3 910.7 405.7 886 406.5C861.3 407.3 836.7 405.7 812 405.7C787.3 405.7 762.7 407.3 738.2 408.2C713.7 409 689.3 409 664.8 409C640.3 409 615.7 409 591 410C566.3 411 541.7 413 517 413C492.3 413 467.7 411 443 410C418.3 409 393.7 409 369 408.2C344.3 407.3 319.7 405.7 295.2 403C270.7 400.3 246.3 396.7 221.8 398.5C197.3 400.3 172.7 407.7 148 409.5C123.3 411.3 98.7 407.7 74 404C49.3 400.3 24.7 396.7 12.3 394.8L0 393Z" fill="#2e57a1"></path><path d="M0 541L12.3 541C24.7 541 49.3 541 74 541C98.7 541 123.3 541 148 541C172.7 541 197.3 541 221.8 541C246.3 541 270.7 541 295.2 541C319.7 541 344.3 541 369 541C393.7 541 418.3 541 443 541C467.7 541 492.3 541 517 541C541.7 541 566.3 541 591 541C615.7 541 640.3 541 664.8 541C689.3 541 713.7 541 738.2 541C762.7 541 787.3 541 812 541C836.7 541 861.3 541 886 541C910.7 541 935.3 541 947.7 541L960 541L960 507L947.7 506C935.3 505 910.7 503 886 502C861.3 501 836.7 501 812 502C787.3 503 762.7 505 738.2 505C713.7 505 689.3 503 664.8 502C640.3 501 615.7 501 591 502C566.3 503 541.7 505 517 506C492.3 507 467.7 507 443 507C418.3 507 393.7 507 369 506C344.3 505 319.7 503 295.2 502C270.7 501 246.3 501 221.8 502C197.3 503 172.7 505 148 505C123.3 505 98.7 503 74 502C49.3 501 24.7 501 12.3 501L0 501Z" fill="#4168b0"></path></svg>